<svg width="147" height="147" viewBox="0 0 147 147" fill="none" xmlns="http://www.w3.org/2000/svg">
<path d="M122.232 85.8839L147 73.5L119.973 59.9867L135.538 34.0839L107.634 36.9495L108.59 8.91709L85.8839 24.7678L73.5 0L59.9867 27.0266L34.0839 11.4624L36.9495 39.3656L8.91148 38.4104L24.7622 61.1161L0 73.5L27.0266 87.0133L11.4624 112.916L39.3656 110.051L38.4104 138.083L61.1161 122.232L73.5 147L87.0133 119.973L112.916 135.538L110.051 107.634L138.083 108.59L122.232 85.8839Z" fill="#3297FF"/>
<circle cx="52.5769" cy="72.9636" r="5.36496" fill="#49B4D6"/>
<circle cx="74.0368" cy="72.9635" r="5.36496" fill="#49B4D6"/>
<circle cx="95.4968" cy="72.9635" r="5.36496" fill="#49B4D6"/>
</svg>
