<svg width="147" height="148" viewBox="0 0 147 148" fill="none" xmlns="http://www.w3.org/2000/svg">
<g id="Group 116296326">
<path id="Vector" d="M122.232 85.9347L147 73.5508L119.973 60.0375L135.538 34.1346L107.634 37.0003L108.59 8.96787L85.8839 24.8186L73.5 0.0507812L59.9867 27.0774L34.0839 11.5132L36.9495 39.4163L8.91148 38.4612L24.7622 61.1669L0 73.5508L27.0266 87.0641L11.4624 112.967L39.3656 110.101L38.4104 138.134L61.1161 122.283L73.5 147.051L87.0133 120.024L112.916 135.588L110.051 107.685L138.083 108.64L122.232 85.9347Z" fill="#49B4D6"/>
<g id="Group 116296325">
<circle id="Ellipse 3180" cx="52.5769" cy="73.0144" r="5.36496" fill="#49B4D6"/>
<circle id="Ellipse 3181" cx="74.0368" cy="73.0144" r="5.36496" fill="#49B4D6"/>
<circle id="Ellipse 3182" cx="95.4968" cy="73.0144" r="5.36496" fill="#49B4D6"/>
</g>
</g>
</svg>
