<svg width="34" height="24" viewBox="0 0 34 24" fill="none" xmlns="http://www.w3.org/2000/svg">
<g filter="url(#filter0_d_90_5159)">
<g clip-path="url(#clip0_90_5159)">
<path d="M2 14.3335H31.9999V20.4738C31.9999 20.7644 31.7683 21.0001 31.4827 21.0001H2.51726C2.23162 21.0001 2 20.7644 2 20.4738V14.3335Z" fill="white"/>
<path d="M2.51726 1H31.4827C31.7684 1 32 1.23568 32 1.52634V7.6666H2V1.52628C2 1.23562 2.23162 1 2.51726 1Z" fill="#FF4B55"/>
<path d="M31.9999 7.6665H2V14.3327H31.9999V7.6665Z" fill="#41479B"/>
<path d="M12.1381 7.66515H8.41394L8.25879 6.71777H12.2933L12.1381 7.66515Z" fill="#FFE15A"/>
<path d="M8.375 7.42822L8.41379 7.6651H12.1379L12.1767 7.42822H8.375Z" fill="#FFD350"/>
<path d="M10.353 4.50732H10.1982V5.13889H10.353V4.50732Z" fill="#FFE15A"/>
<path d="M10.5085 4.66553H10.043V4.8234H10.5085V4.66553Z" fill="#FFE15A"/>
<path d="M12.15 7.03398C12.1324 7.03398 12.1146 7.03088 12.0971 7.02456C12.0165 6.99481 11.9749 6.9043 12.0041 6.82227L12.3328 5.89927C12.3491 5.85348 12.3453 5.8031 12.3223 5.76101C12.31 5.73865 12.2816 5.6993 12.2271 5.68744C11.8264 5.60081 11.0496 5.45509 10.3508 5.45509H10.2009C9.50206 5.45509 8.72528 5.60081 8.32438 5.68761C8.27013 5.6993 8.24153 5.73865 8.22935 5.76101C8.20638 5.8031 8.20251 5.85348 8.21886 5.89927L8.54745 6.82227C8.57669 6.9043 8.53503 6.99481 8.45446 7.02456C8.37395 7.05383 8.28483 7.01174 8.25571 6.92988L7.927 6.00689C7.88013 5.87518 7.89132 5.72977 7.95782 5.60778C8.0221 5.48985 8.13202 5.40626 8.25952 5.37866C8.67243 5.28923 9.47346 5.13916 10.2008 5.13916H10.3507C11.078 5.13916 11.879 5.28917 12.2918 5.37842C12.4194 5.4062 12.5294 5.48973 12.5936 5.60772C12.6601 5.72971 12.6713 5.87506 12.6245 6.00683L12.2957 6.92982C12.2731 6.99409 12.2134 7.03398 12.15 7.03398Z" fill="#FFE15A"/>
<path d="M10.2763 6.8955C10.1906 6.8955 10.1211 6.82491 10.1211 6.73762V5.45475C10.1211 5.36747 10.1906 5.29688 10.2763 5.29688C10.3619 5.29688 10.4314 5.36747 10.4314 5.45475V6.73762C10.4315 6.82485 10.362 6.8955 10.2763 6.8955Z" fill="#FFE15A"/>
<path d="M11.349 7.03392C11.3386 7.03392 11.328 7.03285 11.3173 7.0307C11.2334 7.01293 11.1795 6.9294 11.1969 6.84397L11.3851 5.92097C11.4096 5.80072 11.3713 5.69537 11.3495 5.67688C11.1344 5.59657 10.7027 5.45497 10.3186 5.45497H10.2328C9.84875 5.45497 9.41709 5.59657 9.19391 5.681C9.18014 5.69537 9.14182 5.80066 9.16625 5.92091L9.35446 6.84391C9.37192 6.92929 9.31801 7.01293 9.23405 7.03064C9.15002 7.04716 9.06788 6.9935 9.05065 6.90806L8.86245 5.98507C8.81557 5.75499 8.88752 5.46034 9.08557 5.3851C9.38223 5.27289 9.8218 5.13916 10.2327 5.13916H10.3186C10.7295 5.13916 11.1691 5.27283 11.4656 5.38492C11.6638 5.46034 11.7358 5.75499 11.6889 5.98507L11.5007 6.90806C11.4856 6.98277 11.421 7.03392 11.349 7.03392Z" fill="#FFE15A"/>
<path d="M8.29758 6.95459H12.2545L12.2933 6.71777H8.25879L8.29758 6.95459Z" fill="#FFD350"/>
<path d="M7.32801 7.66553C7.24234 7.66553 7.17285 7.73624 7.17285 7.8234V13.3375C7.17285 15.0883 8.56228 16.5076 10.2763 16.5076C11.9904 16.5076 13.3798 15.0883 13.3798 13.3375V7.8234C13.3798 7.73624 13.3103 7.66553 13.2246 7.66553H7.32801Z" fill="#FF4B55"/>
<path d="M10.5869 12.8759L10.8973 12.0864L10.2766 12.2443L9.6559 12.0864L9.96627 12.8759L9.19043 15.5601C9.19043 15.5601 9.65596 15.8759 10.2766 15.8759C10.8973 15.8759 11.3628 15.5601 11.3628 15.5601L10.5869 12.8759Z" fill="white"/>
<path d="M9.15211 13.5118L8.8783 13.5815L9.48058 12.4785L9.20929 12.3252L8.47775 13.665H7.7932V13.9808H8.1266L7.69629 14.3311L7.89012 14.5778L8.25568 14.2802L8.11148 14.7203L8.40592 14.8202L8.68933 13.955L9.2274 13.8181L9.15211 13.5118Z" fill="#FFE15A"/>
<path d="M9.18931 9.24442L8.48097 8.88401C8.3509 8.81783 8.2834 8.66854 8.31867 8.52497L8.35875 8.3619C8.38652 8.24874 8.30244 8.13916 8.18777 8.13916C8.13422 8.13916 8.08359 8.1639 8.05019 8.20647C7.68264 8.67396 7.48242 9.25479 7.48242 9.85351V13.1918C7.48242 13.1918 8.13041 13.0599 8.7157 12.1936C8.82316 12.0345 9.00006 11.9404 9.18867 11.9305L8.87894 12.8759L9.49968 13.0339L10.0428 12.3763L9.18931 9.24442Z" fill="white"/>
<path d="M11.3998 13.5118L11.6736 13.5815L11.0713 12.4785L11.3426 12.3252L12.0741 13.665H12.7587V13.9808H12.4252L12.8556 14.3311L12.6618 14.5778L12.2962 14.2802L12.4404 14.7203L12.1459 14.8202L11.8625 13.955L11.3245 13.8181L11.3998 13.5118Z" fill="#FFE15A"/>
<path d="M11.3622 9.24442L12.0705 8.88401C12.2006 8.81783 12.2681 8.66854 12.2328 8.52497L12.1928 8.3619C12.165 8.24874 12.2491 8.13916 12.3637 8.13916C12.4173 8.13916 12.4679 8.1639 12.5013 8.20647C12.8689 8.67396 13.0691 9.25479 13.0691 9.85351V13.1918C13.0691 13.1918 12.4211 13.0599 11.8358 12.1936C11.7284 12.0345 11.5515 11.9404 11.3628 11.9305L11.6726 12.8759L11.0519 13.0338L10.5088 12.3762L11.3622 9.24442Z" fill="white"/>
<path d="M9.34523 8.13916H8.56934L8.80213 8.45497L9.34523 8.61285L9.03486 8.77073H9.50039L9.34523 8.13916Z" fill="#FFE15A"/>
<path d="M11.2069 8.13916H11.9828L11.75 8.45497L11.2069 8.61285L11.5173 8.77073H11.0518L11.2069 8.13916Z" fill="#FFE15A"/>
<path d="M11.316 8.0152L10.5861 8.13897L10.2757 8.77054L9.96532 8.13897L9.23536 8.0152C9.15169 8.00101 9.08747 8.08942 9.12544 8.16663L9.49985 8.92847L9.18948 9.24429H10.2757H11.3619L11.0515 8.92847L11.4259 8.16663C11.4639 8.08936 11.3997 8.00095 11.316 8.0152Z" fill="white"/>
<path d="M10.2757 7.02392C10.4042 7.02392 10.5084 6.9179 10.5084 6.78711C10.5084 6.65632 10.4042 6.55029 10.2757 6.55029C10.1472 6.55029 10.043 6.65632 10.043 6.78711C10.043 6.9179 10.1472 7.02392 10.2757 7.02392Z" fill="#FFBE50"/>
<path d="M10.2728 7.48387C10.3744 7.48387 10.4567 7.42496 10.4567 7.35229C10.4567 7.27962 10.3744 7.2207 10.2728 7.2207C10.1712 7.2207 10.0889 7.27962 10.0889 7.35229C10.0889 7.42496 10.1712 7.48387 10.2728 7.48387Z" fill="#41479B"/>
<path d="M9.35482 7.48387C9.4564 7.48387 9.53875 7.42496 9.53875 7.35229C9.53875 7.27962 9.4564 7.2207 9.35482 7.2207C9.25324 7.2207 9.1709 7.27962 9.1709 7.35229C9.1709 7.42496 9.25324 7.48387 9.35482 7.48387Z" fill="#FF4B55"/>
<path d="M8.43686 7.48387C8.53843 7.48387 8.62078 7.42496 8.62078 7.35229C8.62078 7.27962 8.53843 7.2207 8.43686 7.2207C8.33528 7.2207 8.25293 7.27962 8.25293 7.35229C8.25293 7.42496 8.33528 7.48387 8.43686 7.48387Z" fill="#41479B"/>
<path d="M12.1097 7.48387C12.2113 7.48387 12.2936 7.42496 12.2936 7.35229C12.2936 7.27962 12.2113 7.2207 12.1097 7.2207C12.0081 7.2207 11.9258 7.27962 11.9258 7.35229C11.9258 7.42496 12.0081 7.48387 12.1097 7.48387Z" fill="#41479B"/>
<path d="M11.1908 7.48387C11.2923 7.48387 11.3747 7.42496 11.3747 7.35229C11.3747 7.27962 11.2923 7.2207 11.1908 7.2207C11.0892 7.2207 11.0068 7.27962 11.0068 7.35229C11.0068 7.42496 11.0892 7.48387 11.1908 7.48387Z" fill="#FF4B55"/>
<path d="M11.3529 7.02392C11.4814 7.02392 11.5856 6.9179 11.5856 6.78711C11.5856 6.65632 11.4814 6.55029 11.3529 6.55029C11.2243 6.55029 11.1201 6.65632 11.1201 6.78711C11.1201 6.9179 11.2243 7.02392 11.3529 7.02392Z" fill="#FFBE50"/>
<path d="M12.2034 7.02392C12.332 7.02392 12.4362 6.9179 12.4362 6.78711C12.4362 6.65632 12.332 6.55029 12.2034 6.55029C12.0749 6.55029 11.9707 6.65632 11.9707 6.78711C11.9707 6.9179 12.0749 7.02392 12.2034 7.02392Z" fill="#FFBE50"/>
<path d="M9.19758 7.02392C9.32611 7.02392 9.43031 6.9179 9.43031 6.78711C9.43031 6.65632 9.32611 6.55029 9.19758 6.55029C9.06904 6.55029 8.96484 6.65632 8.96484 6.78711C8.96484 6.9179 9.06904 7.02392 9.19758 7.02392Z" fill="#FFBE50"/>
<path d="M8.34601 7.02392C8.47455 7.02392 8.57875 6.9179 8.57875 6.78711C8.57875 6.65632 8.47455 6.55029 8.34601 6.55029C8.21748 6.55029 8.11328 6.65632 8.11328 6.78711C8.11328 6.9179 8.21748 7.02392 8.34601 7.02392Z" fill="#FFBE50"/>
<path d="M10.5425 5.45514C10.5692 5.40857 10.5856 5.35509 10.5856 5.29726C10.5856 5.12287 10.4467 4.98145 10.2752 4.98145C10.1038 4.98145 9.96484 5.12281 9.96484 5.29726C9.96484 5.35509 9.98119 5.40857 10.0079 5.45514H10.5425Z" fill="#41479B"/>
<path d="M10.2761 12.4813C9.63432 12.4813 9.1123 11.9501 9.1123 11.2971V9.16553H11.4399V11.2971C11.4399 11.9502 10.9179 12.4813 10.2761 12.4813Z" fill="#FF4B55"/>
<path d="M11.3627 9.2443V11.2969C11.3627 11.9073 10.8763 12.4022 10.2765 12.4022C9.67658 12.4022 9.19025 11.9073 9.19025 11.2969V9.2443H11.3627ZM11.5179 9.08643H11.3627H9.19031H9.03516V9.2443V11.2969C9.03516 11.9934 9.59203 12.5601 10.2765 12.5601C10.961 12.5601 11.5179 11.9934 11.5179 11.2969V9.2443V9.08643Z" fill="#A54B50"/>
<path d="M10.044 12.376C10.1191 12.3927 10.1968 12.402 10.2767 12.402C10.3567 12.402 10.4344 12.3926 10.5095 12.376V9.24414H10.0439C10.044 9.24414 10.044 12.376 10.044 12.376Z" fill="white"/>
<path d="M11.3631 10.5469H9.19043V11.0206H11.3631V10.5469Z" fill="white"/>
</g>
</g>
<defs>
<filter id="filter0_d_90_5159" x="0" y="0" width="34" height="24" filterUnits="userSpaceOnUse" color-interpolation-filters="sRGB">
<feFlood flood-opacity="0" result="BackgroundImageFix"/>
<feColorMatrix in="SourceAlpha" type="matrix" values="0 0 0 0 0 0 0 0 0 0 0 0 0 0 0 0 0 0 127 0" result="hardAlpha"/>
<feOffset dy="1"/>
<feGaussianBlur stdDeviation="1"/>
<feComposite in2="hardAlpha" operator="out"/>
<feColorMatrix type="matrix" values="0 0 0 0 0 0 0 0 0 0 0 0 0 0 0 0 0 0 0.25 0"/>
<feBlend mode="normal" in2="BackgroundImageFix" result="effect1_dropShadow_90_5159"/>
<feBlend mode="normal" in="SourceGraphic" in2="effect1_dropShadow_90_5159" result="shape"/>
</filter>
<clipPath id="clip0_90_5159">
<rect x="2" y="1" width="30" height="20" rx="1" fill="white"/>
</clipPath>
</defs>
</svg>
