<?xml version="1.0" encoding="utf-8"?>
<!-- Generator: Adobe Illustrator 21.0.2, SVG Export Plug-In . SVG Version: 6.00 Build 0)  -->
<svg version="1.1" id="Layer_1" xmlns="http://www.w3.org/2000/svg" xmlns:xlink="http://www.w3.org/1999/xlink" x="0px" y="0px"
	 viewBox="0 0 500 500" style="enable-background:new 0 0 500 500;" xml:space="preserve">
<path d="M474.7,200c13.8,0,24.9-11.2,24.9-25V25c0-13.8-11.2-25-24.9-25H325c-13.8,0-24.9,11.2-24.9,25c0,13.8,11.2,25,24.9,25h89.5
	L199.9,265.2c-9.7,9.8-9.7,25.6,0,35.4c9.7,9.8,25.5,9.8,35.3,0L449.7,85.4V175C449.7,188.8,460.9,200,474.7,200z M75.7,75
	c-41.3,0-74.8,33.6-74.8,75v275c0,41.4,33.5,75,74.8,75h274.3c41.3,0,74.8-33.6,74.8-75V275c0-13.8-11.2-25-24.9-25
	c-13.8,0-24.9,11.2-24.9,25v150c0,13.8-11.2,25-24.9,25H75.7c-13.8,0-24.9-11.2-24.9-25V150c0-13.8,11.2-25,24.9-25h149.6
	c13.8,0,24.9-11.2,24.9-25c0-13.8-11.2-25-24.9-25H75.7z"/>
</svg>
