<?xml version="1.0" encoding="utf-8"?>
<!-- Generator: Adobe Illustrator 21.0.2, SVG Export Plug-In . SVG Version: 6.00 Build 0)  -->
<svg version="1.1" id="Layer_1" xmlns="http://www.w3.org/2000/svg" xmlns:xlink="http://www.w3.org/1999/xlink" x="0px" y="0px"
	 viewBox="0 0 500 500" style="enable-background:new 0 0 500 500;" xml:space="preserve">
<path d="M96.2,446.4h307.9c3.9,0,7.1,3.2,7.1,7.1v39.4c0,3.9-3.2,7.1-7.1,7.1H96.2c-3.9,0-7.1-3.2-7.1-7.1v-39.4
	C89.2,449.6,92.3,446.4,96.2,446.4z M245.2,401.3L93.7,249.4c-2.7-2.7-4.4-6-5.2-9.6c-0.7-3.5-0.4-7.2,1.1-10.7
	c1.5-3.5,3.9-6.4,6.8-8.4c3-2,6.6-3.1,10.4-3.1h71.4V7.1c0-3.9,3.2-7.1,7.1-7.1H315c3.9,0,7.1,3.2,7.1,7.1v210.4h71.4
	c3.8,0,7.3,1.1,10.4,3.1c3,2,5.4,4.9,6.8,8.4c1.5,3.6,1.8,7.3,1.1,10.7c-0.7,3.6-2.4,6.9-5.2,9.6L255.2,401.3
	C252.4,404,247.9,404,245.2,401.3z"/>
</svg>
